<svg width="512" height="512" viewBox="0 0 512 512" fill="none" xmlns="http://www.w3.org/2000/svg">
<path d="M0 40C0 17.9086 17.9086 0 40 0H256V256H0V40Z" fill="#106DB0"/>
<path d="M0 256H256V512H40C17.9086 512 0 494.091 0 472V256Z" fill="#FEFFFF"/>
<path d="M256 0H472C494.091 0 512 17.9086 512 40V256H256V0Z" fill="#FEFFFF"/>
<path d="M256 256H512V472C512 494.091 494.091 512 472 512H256V256Z" fill="#106DB0"/>
<path d="M254.5 257.5V510.5H40C18.737 510.5 1.5 493.263 1.5 472V257.5H254.5ZM510.5 257.5V472C510.5 493.263 493.263 510.5 472 510.5H257.5V257.5H510.5ZM472 1.5C493.263 1.5 510.5 18.737 510.5 40V254.5H257.5V1.5H472ZM40 1.5H254.5V254.5H1.5V40C1.5 18.737 18.737 1.5 40 1.5Z" stroke="#358DCC" stroke-width="3"/>
</svg>
